<?xml version="1.0" standalone="no"?>
<!DOCTYPE svg PUBLIC "-//W3C//DTD SVG 20010904//EN"
 "http://www.w3.org/TR/2001/REC-SVG-20010904/DTD/svg10.dtd">
<svg version="1.0" xmlns="http://www.w3.org/2000/svg"
 width="430.000000pt" height="430.000000pt" viewBox="0 0 430.000000 430.000000"
 preserveAspectRatio="xMidYMid meet">
<metadata>
Created by potrace 1.11, written by Peter Selinger 2001-2013
</metadata>
<g transform="translate(0.000000,430.000000) scale(0.100000,-0.100000)"
fill="#000000" stroke="none">
<path d="M293 2908 l-42 -9 19 -54 c10 -30 21 -71 24 -91 4 -20 8 -39 10 -43
21 -34 22 -577 1 -786 -2 -22 -6 -119 -9 -215 -6 -207 2 -241 61 -261 58 -19
172 2 246 47 16 9 16 13 2 47 -8 20 -20 58 -25 84 -5 27 -13 62 -17 78 -7 30
-11 645 -5 785 3 73 5 76 35 94 138 82 211 107 317 112 147 6 245 -48 283
-154 40 -110 46 -191 40 -532 -3 -179 -5 -361 -5 -406 0 -133 33 -170 142
-161 55 5 165 40 175 57 3 5 -3 31 -14 57 -33 85 -37 138 -46 618 -2 149 -9
299 -14 335 -12 77 -10 80 78 125 89 44 160 64 257 71 153 12 257 -41 312
-159 57 -121 67 -254 48 -657 -21 -421 -15 -443 107 -447 49 -1 77 5 131 27
38 16 70 31 72 33 2 2 -7 34 -21 73 -36 104 -38 129 -40 534 -2 315 -5 384
-19 433 -72 257 -267 389 -546 374 -52 -3 -106 -8 -119 -11 -82 -18 -223 -79
-326 -140 l-30 -18 -40 36 c-53 49 -165 103 -240 117 -151 28 -358 -23 -507
-123 -33 -23 -38 -23 -38 3 0 33 -39 94 -71 113 -34 20 -125 27 -186 14z"/>
<path d="M2885 2881 c-27 -10 -62 -23 -77 -29 l-26 -11 20 -53 c39 -104 47
-187 42 -438 -11 -474 -10 -497 25 -610 67 -216 233 -324 486 -316 160 5 276
56 392 172 30 30 55 54 56 54 1 0 3 -27 4 -60 5 -140 68 -180 202 -129 87 33
114 49 103 62 -25 32 -56 163 -63 260 -4 64 -3 402 2 802 3 205 2 234 -14 263
-10 18 -30 38 -45 43 -39 15 -117 5 -193 -25 l-65 -27 23 -70 c40 -119 51
-239 51 -549 0 -157 -3 -302 -7 -323 -7 -42 -92 -136 -170 -187 -106 -71 -249
-97 -356 -65 -175 50 -220 229 -191 750 17 286 16 414 -1 450 -27 57 -104 70
-198 36z"/>
</g>
</svg>
